<?xml version="1.0" encoding="utf-8"?>
<!-- Generator: Adobe Illustrator 21.1.0, SVG Export Plug-In . SVG Version: 6.00 Build 0)  -->
<svg version="1.1" id="Layer_1" xmlns="http://www.w3.org/2000/svg" xmlns:xlink="http://www.w3.org/1999/xlink" x="0px" y="0px"
	 viewBox="0 0 24 24" style="enable-background:new 0 0 24 24;" xml:space="preserve">
<style type="text/css">
	.st0{fill:none;}
</style>
<path class="st0" d="M24,24H0V0h24V24z"/>
<g>
	<polygon points="20.2,12 17.6,14.6 19,16 23,12 19,8 17.6,9.4 	"/>
</g>
<path d="M4,22h16c1.1,0,2-0.9,2-2v-4.2l-2,2V20h-4v-4v-2v-4V8V4h4v2.2l2,2V4c0-1.1-0.9-2-2-2H4C2.9,2,2,2.9,2,4v16
	C2,21.1,2.9,22,4,22z M10,4h4v4h-4V4z M10,10h4v4h-4V10z M10,16h4v4h-4V16z M4,4h4v4H4V4z M4,10h4v4H4V10z M4,16h4v4H4V16z"/>
</svg>
