<svg xmlns="http://www.w3.org/2000/svg" viewBox="0 0 24 24"><defs><style>.cls-1,.cls-2{fill:none;}.cls-1{stroke:#000;stroke-miterlimit:10;stroke-width:2px;}</style></defs><title>Asset 1</title><g id="Layer_2" data-name="Layer 2"><g id="Layer_1-2" data-name="Layer 1"><line class="cls-1" x1="2.45" y1="3.72" x2="20.28" y2="21.55"/><path class="cls-2" d="M24,24H0V0H24Z"/><circle cx="9.54" cy="4.1" r="2"/><path d="M16.15,6.94a1.84,1.84,0,0,1-1.84,1.84H11.64l2,2h.67a3.84,3.84,0,0,0,0-7.68H9.53v2h4.77A1.84,1.84,0,0,1,16.15,6.94Z"/><path d="M15.55,15.52l-.09,0-5.56-.88a2.11,2.11,0,0,1-2.05-1.92,1.92,1.92,0,0,1,1.91-1.92h1l-1.9-1.9a3.92,3.92,0,0,0-3.06,3.81,4,4,0,0,0,3.76,3.9l5.5.87c.95.19.95.54.95.77a.75.75,0,0,1-.75.75H12.46v2h2.85a2.75,2.75,0,0,0,2.75-2.75c0-.07,0-.14,0-.22Z"/></g></g></svg>