<?xml version="1.0" encoding="utf-8"?>
<!-- Generator: Adobe Illustrator 21.1.0, SVG Export Plug-In . SVG Version: 6.00 Build 0)  -->
<svg version="1.1" id="Layer_1" xmlns="http://www.w3.org/2000/svg" xmlns:xlink="http://www.w3.org/1999/xlink" x="0px" y="0px"
	 viewBox="0 0 24 24" style="enable-background:new 0 0 24 24;" xml:space="preserve">
<style type="text/css">
	.st0{fill:#8FC7E8;}
	.st1{fill:none;stroke:#000000;stroke-width:2;stroke-linecap:round;stroke-miterlimit:10;}
	.st2{fill:#FFFFFF;}
	.st3{fill:#FF6633;}
	.st4{fill:none;}
	.st5{fill:none;stroke:#000000;stroke-width:2;stroke-miterlimit:10;}
	.st6{fill:none;stroke:#FFFFFF;stroke-width:2;stroke-miterlimit:10;}
</style>
<path class="st4" d="M0,0h24v24H0V0z"/>
<g>
	<polygon points="4.4,12 7,9.4 5.6,8 1.6,12 5.6,16 7,14.6 	"/>
</g>
<path class="st5" d="M12.4,4.1h4.8c1.6,0,2.8,1.3,2.8,2.8v0c0,1.6-1.3,2.8-2.8,2.8h-4.5c-1.6,0-2.9,1.3-2.9,2.9l0,0
	c0,1.6,1.3,2.7,2.9,2.9l5.5,0.9c1.1,0.2,1.7,0.8,1.7,1.7v0c0,1-0.8,1.7-1.7,1.7h-2.8"/>
<circle cx="12.4" cy="4.1" r="2"/>
</svg>
