<?xml version="1.0" encoding="utf-8"?>
<!-- Generator: Adobe Illustrator 21.1.0, SVG Export Plug-In . SVG Version: 6.00 Build 0)  -->
<svg version="1.1" id="Layer_1" xmlns="http://www.w3.org/2000/svg" xmlns:xlink="http://www.w3.org/1999/xlink" x="0px" y="0px"
	 viewBox="0 0 24 24" style="enable-background:new 0 0 24 24;" xml:space="preserve">
<style type="text/css">
	.st0{fill:none;}
</style>
<path class="st0" d="M0,0h24v24H0V0z"/>
<g>
	<path d="M20,2h-2.7v2l0,0H20v4h-4h-2h-4H8H4V4h2.7l0,0V2H4C2.9,2,2,2.9,2,4v16c0,1.1,0.9,2,2,2h16c1.1,0,2-0.9,2-2V4
		C22,2.9,21.1,2,20,2z M8,20H4v-4h4V20z M8,14H4v-4h4V14z M14,20h-4v-4h4V20z M14,14h-4v-4h4V14z M20,20h-4v-4h4V20z M20,14h-4v-4h4
		V14z"/>
</g>
<polygon points="12,3.9 9.4,1.3 8,2.7 12,6.7 16,2.7 14.6,1.3 "/>
</svg>
